# xmcd
#
# Track frame offsets: 
#        150
#        17802
#        33990
#        50112
#        71170
#        95332
#        114720
#        132797
#        145155
#        182202
#        200747
#        219235
#        237717
#        253252
#        270995
#
# Disc length: 3867 seconds
#
# Revision: 5
# Processed by: cddbd v1.5.2PL0 Copyright (c) Steve Scherf et al.
# Submitted via: ExactAudioCopyFreeDBPlugin 1.0
#
DISCID=e90f190f
DTITLE=Pharrell - In My Mind
DYEAR=2006
DGENRE=Hip-Hop
TTITLE0=Pharrell feat. Gwen Stefani - Can I Have It Like That
TTITLE1=How Does It Feel?
TTITLE2=Raspy ****
TTITLE3=Best Friend
TTITLE4=You Can Do It Too
TTITLE5=Pharrell feat. Slim Thug - Keep It Playa
TTITLE6=Pharrell feat. Snoop Dogg - That Girl
TTITLE7=Angel
TTITLE8=Pharrell feat. Jay-Z - Young Girl_I Really Like You
TTITLE9=Pharrell Dim The Lights - Take It Off
TTITLE10=Pharrell feat. Pusha T - Stay With Me
TTITLE11=Pharrell feat. Nelly - Baby
TTITLE12=Our Father
TTITLE13=Pharrell feat. Kanye West - Number One
TTITLE14=Pharrell feat. Lauren - Skateboard P pres. Show You How To Hu
TTITLE14=stle
EXTD=
EXTT0=
EXTT1=
EXTT2=
EXTT3=
EXTT4=
EXTT5=
EXTT6=
EXTT7=
EXTT8=
EXTT9=
EXTT10=
EXTT11=
EXTT12=
EXTT13=
EXTT14=
PLAYORDER=
